<svg id="Laag_1" data-name="Laag 1" xmlns="http://www.w3.org/2000/svg" xmlns:xlink="http://www.w3.org/1999/xlink" viewBox="0 0 566.93 850.39"><defs><style>.cls-1{fill:url(#linear-gradient);}.cls-2{fill:url(#linear-gradient-2);}.cls-3{fill:url(#linear-gradient-3);}</style><linearGradient id="linear-gradient" x1="38.48" y1="401.34" x2="528.96" y2="401.34" gradientUnits="userSpaceOnUse"><stop offset="0" stop-color="#00a099"/><stop offset="1" stop-color="#00716e"/></linearGradient><linearGradient id="linear-gradient-2" x1="406.13" y1="750.87" x2="406.13" y2="51.81" xlink:href="#linear-gradient"/><linearGradient id="linear-gradient-3" x1="117.83" y1="297.1" x2="449.57" y2="297.1" gradientUnits="userSpaceOnUse"><stop offset="0" stop-color="#00716e"/><stop offset="1" stop-color="#00a099"/></linearGradient></defs><title>Tekengebied 1LogoSamLocatiePin</title><path class="cls-1" d="M457.14,123.72C397.54,64.13,309.42,39,227.37,58.29,164.82,73,109.6,112.74,75.53,167.18A244.73,244.73,0,0,0,41.41,258c-5.63,35.11-2.66,70.73,4.87,105.34,14.18,65.11,43.92,126.4,77.82,183.36,29.55,49.65,63.23,96.85,99.5,141.8q16.51,20.46,33.86,40.23c6.06,6.87,13.7,17.44,22.37,20.44,1.43.49,3.55,1.5,5.08,1.57,2,.09,4.59-1,6.52-1.73,4.57-1.69,8.48-5.37,11.78-8.91,1.67-1.79,3.28-3.63,4.89-5.46,9.72-11,19.16-22.21,28.42-33.58a1262.18,1262.18,0,0,0,96.24-134.69c35-56.87,66.06-117.67,83.47-182.44,9.47-35.2,15-72.25,11.79-108.71a244.54,244.54,0,0,0-70.9-151.5M431.75,351.39C405.84,422,331.27,465.56,257.09,452.9,200.76,443.29,153,402.28,134.43,348.28c-18.94-55.22-5.05-117.86,35.23-160,43.1-45.12,110.59-60.82,169.14-38.87C409,175.69,451.88,250.31,439,324.26a156.26,156.26,0,0,1-7.28,27.14Z"/><path class="cls-2" d="M529,297.14c0,62.56-21.57,124.53-47.85,180.51C456.11,531,425,581.42,391,629.46c-23.33,32.94-48.12,64.91-74.43,95.53-4.39,5.1-8.76,10.25-13.36,15.16-3.23,3.46-7,7-11.46,8.78-1.41.57-6.82,3.06-8.09,1.35-.66-.88,0-4.84,0-5.88V462.92c0-1.42-.82-6.11,0-7.33,1.05-1.55,10.1-.74,12.47-.93a157,157,0,0,0,80.1-29.7,157.77,157.77,0,0,0-65.67-283.23c-4.34-.76-8.71-1.35-13.11-1.72-2.43-.21-4.86-.34-7.29-.45-.66,0-6,.41-6.49-.15s0-3.49,0-4.16V51.81A245.09,245.09,0,0,1,529,297.14Z"/><path class="cls-3" d="M117.83,297.17c0,69,44.54,132.42,109.42,156,65.36,23.73,140.35,2.95,184.61-50.53s50.23-131.41,14.19-191-107.43-91-175.71-77c-66.87,13.72-119.94,69.3-130.51,136.75A166.7,166.7,0,0,0,117.83,297.17ZM337,179.21c55.44,25,86.71,87.42,73.14,146.74C399.7,371.61,364,409,319,421.68c-46,13-96.64-1.1-129.42-35.9-35.47-37.65-45.15-94.4-23.83-141.66,25.46-56.41,89.48-87.62,149.63-72.47A132.05,132.05,0,0,1,337,179.21C340.84,180.93,334.16,177.93,337,179.21Z"/></svg>